<?xml version="1.0" encoding="UTF-8"?>
<svg id="Layer_2" data-name="Layer 2" xmlns="http://www.w3.org/2000/svg" viewBox="0 0 322.18 236.55">
  <defs>
    <style>
      .cls-1 {
        fill: #434d63;
      }

      .cls-2 {
        fill: #fca311;
      }
    </style>
  </defs>
  <g id="Layer_1-2" data-name="Layer 1">
    <path id="Icon_awesome-running" data-name="Icon awesome-running" class="cls-1" d="m66.53,44.35c-12.25,0-22.18-9.93-22.18-22.18S54.28,0,66.53,0s22.18,9.93,22.18,22.18-9.93,22.18-22.18,22.18h0Zm73.14,102.33l6.84,15.95h30.9c8.17,0,14.78,6.63,14.77,14.8,0,8.16-6.62,14.77-14.77,14.77h-35.78c-8.87.01-16.9-5.28-20.38-13.44l-4.06-9.48,4.93-2.91c7.73-4.61,13.85-11.48,17.55-19.69h0ZM14.78,103.49h20.34l12.04-24.6c5.63-11.63,16.05-20.23,28.54-23.54l32.84-9.77c13.01-3.16,26.74-.24,37.35,7.92l18.33,14.05c6.48,4.97,7.71,14.25,2.74,20.73-4.97,6.48-14.25,7.71-20.73,2.74l-18.34-14.05c-3.29-2.6-7.56-3.64-11.68-2.84l-6.79,2.02,17.31,40.38c5.82,13.67.62,29.53-12.15,37.11l-39.26,23.18,12.69,40.53c2.44,7.79-1.9,16.09-9.69,18.53-7.79,2.44-16.09-1.9-18.53-9.69h0l-14.61-46.69c-2.72-9.67,1.38-19.97,10-25.13l28.29-16.7-14.47-36.17-9.37,19.14c-3.75,7.58-11.46,12.39-19.92,12.42H14.78c-8.16,0-14.78-6.62-14.78-14.78s6.62-14.78,14.78-14.78h0Z"/>
  </g>
  <g id="Layer_2-2" data-name="Layer 2">
    <circle class="cls-2" cx="196.09" cy="22.27" r="22"/>
    <path class="cls-2" d="m294.23,67.55s-8.13-6.28-22.06-16.62c-13.93-10.35-33.62-5.34-33.62-5.34l-24.52,7.31c-6.11,1.82-11.92,4.51-17.43,7.72-7.92,4.62-17.9,7.44-24.98,9.01-4.98,1.1-10.06,1.65-15.16,1.65h-43.94c-8.08,0-15.03,6.21-15.41,14.27-.41,8.61,6.46,15.73,14.98,15.73v.21h86.92l14.47,36.16s-13.39,7.62-28.29,16.7c-14.91,9.08-10,25.13-10,25.13,0,0,10.91,35.79,14.61,46.69,3.71,10.9,14.06,10.5,18.53,9.69,14.23-7.41,9.69-18.53,9.69-18.53l-12.69-40.53s16.27-9.89,39.26-23.18c22.49-16.65,12.15-37.1,12.15-37.1l-17.65-40.25,7.13-2.15c7.13-2.15,11.67,2.84,11.67,2.84,0,0,9.05,7.57,18.34,14.05,9.15,6.74,17.98.26,20.73-2.74,7.87-14-2.74-20.73-2.74-20.73Z"/>
    <path class="cls-2" d="m269.67,146.68l6.84,15.95h30.9s12.87-1.05,14.77,14.8c-2.18,7.7-5.46,14.7-14.77,14.77s-35.78,0-35.78,0c0,0-15.22.04-20.38-13.44l-4.32-9.97s12.32-1.7,22.74-22.11Z"/>
    <path class="cls-2" d="m101.06,66.4c-3.89-4.27-7.23-8.94-10-14,3.89,4.26,7.23,8.94,10,14h0Z"/>
    <path class="cls-2" d="m88.1,85.8c-6.72.42-13.42.16-20.08-.8,6.72-.42,13.42-.15,20.08.8h0Z"/>
    <path class="cls-2" d="m89.29,73.39c-6.42-2.03-12.58-4.68-18.45-7.97,6.42,2.02,12.58,4.69,18.45,7.97h0Z"/>
    <path class="cls-2" d="m95.03,96.86c-5.66,3.64-11.64,6.67-17.93,9.08,5.66-3.64,11.65-6.67,17.93-9.08h0Z"/>
    <path class="cls-2" d="m101.06,105.4c-2.4,5.67-5.4,11.01-9,16,2.4-5.67,5.4-11.01,9-16h0Z"/>
  </g>
</svg>