<svg xmlns="http://www.w3.org/2000/svg" width="24.53" height="35.689" viewBox="0 0 24.53 35.689">
  <path id="Icon_awesome-question" data-name="Icon awesome-question" d="M14.1,0a13.506,13.506,0,0,0-12,6.345,1.675,1.675,0,0,0,.361,2.292l3.007,2.28a1.673,1.673,0,0,0,2.318-.289c1.746-2.187,3.041-3.447,5.769-3.447,2.144,0,4.8,1.38,4.8,3.46,0,1.572-1.3,2.379-3.415,3.566C12.468,15.591,9.2,17.314,9.2,21.624v.682a1.673,1.673,0,0,0,1.673,1.673h5.052A1.673,1.673,0,0,0,17.6,22.306v-.4c0-2.988,8.732-3.112,8.732-11.2C26.33,4.618,20.014,0,14.1,0Zm-.7,26.032a4.829,4.829,0,1,0,4.829,4.829A4.834,4.834,0,0,0,13.4,26.032Z" transform="translate(-1.8)" fill="#14213d"/>
</svg>
