<svg xmlns="http://www.w3.org/2000/svg" width="67.348" height="89.798" viewBox="0 0 67.348 89.798">
  <g id="Group_89" data-name="Group 89" transform="translate(-57 -37)">
    <path id="Icon_awesome-map-marker-alt" data-name="Icon awesome-map-marker-alt" d="M30.213,87.986C4.73,51.043,0,47.251,0,33.674a33.674,33.674,0,0,1,67.348,0c0,13.577-4.73,17.369-30.213,54.312a4.211,4.211,0,0,1-6.921,0Zm3.461-40.281A14.031,14.031,0,1,0,19.643,33.674,14.031,14.031,0,0,0,33.674,47.705Z" transform="translate(57 37)" fill="#fca311"/>
    <path id="Path_7" data-name="Path 7" d="M18.5,0A18.5,18.5,0,0,1,37,18.5c0,10.217-7.521,20.244-18.5,25.309C7.075,38.495,0,28.717,0,18.5A18.5,18.5,0,0,1,18.5,0Z" transform="translate(72 52)" fill="#fff"/>
    <path id="Icon_awesome-running" data-name="Icon awesome-running" d="M13.181,4.652a2.326,2.326,0,1,0-2.326-2.326A2.326,2.326,0,0,0,13.181,4.652ZM5.509,15.384l-.717,1.673H1.551a1.551,1.551,0,1,0,0,3.1H5.3a2.321,2.321,0,0,0,2.137-1.41l.426-.994-.517-.305a4.614,4.614,0,0,1-1.841-2.065Zm13.1-4.53H16.474l-1.263-2.58a4.65,4.65,0,0,0-2.994-2.468L8.773,4.781a4.632,4.632,0,0,0-3.917.831L2.934,7.085A1.55,1.55,0,1,0,4.821,9.546L6.744,8.072a1.509,1.509,0,0,1,1.225-.3l.712.212L6.866,12.221A3.109,3.109,0,0,0,8.14,16.113l4.118,2.431L10.927,22.8a1.55,1.55,0,1,0,2.959.927l1.533-4.9a2.336,2.336,0,0,0-1.049-2.636L11.4,14.438l1.517-3.793.982,2.008a2.34,2.34,0,0,0,2.089,1.3h2.616a1.55,1.55,0,1,0,0-3.1Z" transform="translate(80.421 59.189)" fill="#fca311"/>
  </g>
</svg>
